<?xml version="1.0" encoding="UTF-8"?>
<svg id="Layer_1" xmlns="http://www.w3.org/2000/svg" version="1.1" viewBox="440 860 2120 1260">
  <defs>
    <style>
      .st0 {
        fill: #fff;
      }
    </style>
  </defs>
  <g>
    <path class="st0" d="M449.69,1391.91l138.52.1c70.64.05,120.02,49.03,119.97,110.9s-49.48,110.78-120.13,110.73l-50.79-.03-.07,101.58-87.73-.06.22-323.22ZM578.87,1544.37c23.55.02,40.64-17.52,40.66-41.53.02-24.01-17.05-41.57-40.6-41.58l-41.56-.03-.06,83.11,41.56.03Z"/>
    <path class="st0" d="M712.76,1553.7c.07-98.81,73.53-170.79,173.27-170.72,99.73.07,173.1,72.15,173.03,170.96-.07,98.81-73.53,170.79-173.27,170.72-99.73-.07-173.1-72.15-173.03-170.96ZM885.85,1646.17c48.94.03,84.52-39.19,84.56-92.29.04-54.02-35.49-93.3-84.43-93.33-48.94-.03-84.52,39.19-84.56,93.21-.04,53.1,35.49,92.37,84.43,92.4Z"/>
    <path class="st0" d="M1073.01,1392.34l131.59.09c103.89.07,173.11,64.76,173.04,161.73-.07,96.96-69.37,161.56-173.26,161.49l-131.59-.09.22-323.22ZM1202.12,1646.38c52.18.04,86.83-36.88,86.87-92.29.04-55.41-34.57-92.37-86.74-92.41l-42.48-.03-.13,184.69,42.48.03Z"/>
    <path class="st0" d="M1386.87,1554.17c.07-98.81,72.15-170.79,170.96-170.73,89.11.06,157.41,56.9,161.51,134.94l-85.89,7.33c-4.59-37.4-36.43-64.67-75.68-64.7-47.56-.03-82.22,39.19-82.25,93.22-.04,53.1,34.57,92.37,82.13,92.4,39.71.03,71.59-28.58,75.77-67.82l85.88,6.52c-4.21,80.8-72.59,139.86-161.7,139.79-98.81-.07-170.79-72.15-170.73-170.96Z"/>
    <path class="st0" d="M1809,1392.85l108.97.08,113.83,323.29-89.58-.06-23.04-69.74-116.82-.08-23.6,69.71-84.04-.06,114.27-323.14ZM1896.6,1578.06l-35.48-106.69-36.09,106.64,71.57.05Z"/>
    <path class="st0" d="M2017.08,1614.62l84.96-5.48c1.83,28.63,23.98,48.04,54.91,48.06,26.32.02,45.72-13.82,45.73-33.21.01-15.24-11.99-24.02-31.38-26.8l-38.78-5.57c-68.33-9.74-108.94-48.56-108.9-103.97.04-63.72,52.25-103.86,125.2-103.8,73.42.05,128.79,43.95,131.52,103.52l-85.89,5.48c-2.75-24.48-21.67-41.57-46.61-41.59-20.78-.01-37.41,11.98-37.42,29.53-.01,16.16,13.83,25.41,30.46,27.72l38.78,5.57c69.25,9.74,109.86,48.56,109.82,103.5-.04,63.72-55.02,108.01-133.98,107.95-78.96-.05-137.57-46.73-138.44-110.91Z"/>
    <path class="st0" d="M2375.02,1467.12l-87.73-.06.05-73.88,263.19.18-.05,73.88-87.73-.06-.17,249.34-87.73-.06.17-249.34Z"/>
  </g>
  <g>
    <path class="st0" d="M446.15,1808.27h34.51l185.99,267.11-.9-267.11h31.37v313.71h-34.51l-185.99-267.11.9,267.11h-31.37v-313.71Z"/>
    <path class="st0" d="M746.42,1808.27h203.02v25.1h-170.75v116.07h159.1v23.75h-159.1v123.24h174.34v25.55h-206.6v-313.71Z"/>
    <path class="st0" d="M1082.99,1835.16h-107.11v-26.89h246.49v26.89h-107.11v286.82h-32.27v-286.82Z"/>
    <path class="st0" d="M1244.32,1808.27h33.61l80.67,276.96,76.64-276.96h38.99l76.64,276.96,79.33-276.96h33.61l-93.22,313.71h-38.09l-77.98-276.96-77.53,276.96h-38.54l-94.11-313.71Z"/>
    <path class="st0" d="M1675.45,1965.13c0-96.36,65.88-165.82,155.51-165.82s155.51,69.46,155.51,165.82-65.43,165.82-155.51,165.82-155.51-69.47-155.51-165.82ZM1830.97,2102.71c71.26,0,123.24-57.81,123.24-137.59s-51.99-137.59-123.24-137.59-122.8,57.81-122.8,137.59,51.54,137.59,122.8,137.59Z"/>
    <path class="st0" d="M2029.95,1808.27h124.14c61.4,0,102.63,34.96,102.63,86.5,0,44.82-31.82,75.29-77.53,79.77,41.68,2.69,61.85,24.65,66.33,63.64l6.27,52.88c1.35,13.44,3.59,22.86,6.72,30.92h-32.72c-2.24-6.72-4.48-15.69-5.83-27.79l-6.27-53.33c-4.03-34.51-22.41-51.54-63.19-51.54h-88.74v132.66h-31.82v-313.71ZM2152.75,1963.78c42.13,0,71.71-24.2,71.71-64.54s-29.58-65.43-71.71-65.43h-90.98v129.97h90.98Z"/>
    <path class="st0" d="M2303.33,1808.27h31.37v170.3l170.75-170.3h39.44l-128.62,128.62,137.59,185.09h-36.75l-121-164.92-61.4,61.4v103.53h-31.37v-313.71Z"/>
  </g>
  <g>
    <path class="st0" d="M769.23,869.05l-3.93,433h-89.1c-2.01,0-3.19-7.85-5.42-8-2.01-.13-17.37,7.4-22.68,8.73-223.66,55.99-263.65-290.88-95.11-347.68,8.83-2.98,34.11-10.4,41.97-10.4h77.31v-75.64h96.96ZM672.27,1020.34c-33.42,2.36-75.93-1.92-102.26,22.12-35.18,32.12-38.62,123.99-7.74,159.11,25.21,28.66,80.64,27.37,110,5.28v-186.5Z"/>
    <path class="st0" d="M2553.85,1299.44c-13.46,2.58-87.64,5.72-94.42,1.27-1.94-1.28-1.88-6.44-4.07-6.66-63.35,24.85-159.09,24.89-193.66-44.22-4.61-9.22-14.46-39.02-14.46-48.21v-256.93h94.34c3.66,70.35-4.86,145.5-.11,215.3,2.04,29.97,7.96,59.99,43.34,63.81,23.21,2.5,53.15.23,72.07-14.35v-264.75h96.96v354.74Z"/>
    <path class="st0" d="M1715.26,869.05v75.64h110.06v83.47l-110.06-5.22v176.07c0,.76,6.43,11.46,8,12.91,9.56,8.88,35.42,7.61,48.3,6.61,14.74-1.14,35.66-9.23,48.37-9.36,3.12-.03,3.43.29,5.39,2.88v82.17c-92.9,26.26-198.21,27.96-207.13-92.5l.1-332.67h96.96Z"/>
    <path class="st0" d="M1157.08,1148.15h-227.99c13.53,113.17,152.54,76.38,222.75,41.73v84.77c-112.58,59.26-285.16,48.35-318.93-97.29-32.94-142.04,65.71-276.78,219.37-236.61,53.36,13.95,104.81,71.66,104.81,127.83v79.56ZM1062.74,1072.51c-9.45-76.12-120.64-72.58-131.03,0h131.03Z"/>
    <path class="st0" d="M1442.72,1302.05v-233.45c0-1.53-4.67-17.57-5.77-20.34-16.16-40.35-78.18-30.32-109.53-14.88v268.67h-93.03l-3.93-3.91v-353.44h96.96l.02,7.84c51.25-22.75,136.63-26.1,178.16,16.96,60.44,62.67,23.65,240.74,34.22,323.55l-4.06,9h-93.03Z"/>
    <path class="st0" d="M2168.62,1051.64c-45.56-13.73-94.08-33.53-142.8-28.67-16.58,1.65-46.77,10.31-32.51,32.32,9.06,13.98,104.46,27.87,129.07,38.45,83.07,35.71,81.04,149.17,6.97,191.39-67.87,38.69-162.67,25.69-230.66-6.56v-88.69c35.73,11.05,73.49,26.06,111.27,28.79,13.7.99,41.08,1.42,53.97-1.26,26.65-5.53,28.61-30.84,2.44-41.85-53.91-22.68-161.72-15.97-172.7-99.37-19.72-149.75,179.44-168.81,274.94-109.33v84.77Z"/>
  </g>
</svg>
